<svg xmlns="http://www.w3.org/2000/svg" viewBox="0 0 120 120">
  <defs>
    <linearGradient id="star-grad" x1="0%" y1="0%" x2="100%" y2="100%">
      <stop offset="0%" stop-color="#a0c4d8"/>
      <stop offset="50%" stop-color="#7eb8e0"/>
      <stop offset="100%" stop-color="#3b82d4"/>
    </linearGradient>
    <radialGradient id="star-glow" cx="50%" cy="50%">
      <stop offset="0%" stop-color="#7eb8e0" stop-opacity="0.18"/>
      <stop offset="100%" stop-color="#7eb8e0" stop-opacity="0"/>
    </radialGradient>
  </defs>
  <!-- Glow -->
  <circle cx="60" cy="55" r="30" fill="url(#star-glow)"/>
  <!-- Compass star -->
  <path d="M60 10 L65 49 L96 55 L65 61 L60 100 L55 61 L24 55 L55 49 Z" fill="url(#star-grad)"/>
  <!-- Center -->
  <circle cx="60" cy="55" r="4" fill="#f0f4ff" opacity="0.9"/>
  <circle cx="60" cy="55" r="1.8" fill="#fff"/>
  <!-- AI sparkle cluster -->
  <path d="M84 26 L85 30 L89 31 L85 32 L84 36 L83 32 L79 31 L83 30 Z" fill="#f0f4ff" opacity="0.45"/>
  <path d="M92 36 L92.8 38.5 L95 39 L92.8 39.5 L92 42 L91.2 39.5 L89 39 L91.2 38.5 Z" fill="#f0f4ff" opacity="0.3"/>
</svg>
